<svg xmlns="http://www.w3.org/2000/svg" viewBox="0 0 100 100">
  <defs>
    <clipPath id="circle">
      <circle cx="50" cy="50" r="48"/>
    </clipPath>
  </defs>
  <!-- Background circle -->
  <circle cx="50" cy="50" r="48" fill="#f39c12" opacity="0.12"/>
  
  <!-- Profile silhouette - girl with ponytail -->
  <path d="
    M 58 18
    C 62 18, 66 20, 69 24
    C 72 28, 74 34, 74 38
    C 74 42, 72 46, 70 49
    C 68 52, 66 54, 65 57
    C 64 60, 66 64, 68 68
    C 70 72, 72 76, 72 80
    L 72 82
    C 66 84, 60 85, 54 85
    L 48 85
    C 46 85, 44 84, 42 82
    L 38 78
    C 36 76, 34 74, 32 72
    C 28 68, 26 64, 26 58
    C 26 52, 28 46, 32 40
    C 34 36, 36 30, 38 26
    C 40 22, 42 20, 44 19
    C 46 18, 48 18, 48 18
    Z
  " fill="#2c3e50"/>
  
  <!-- Ponytail -->
  <path d="
    M 44 19
    C 40 18, 36 20, 34 24
    C 30 30, 28 38, 28 44
    C 28 48, 29 50, 31 48
    C 33 44, 36 38, 40 34
    C 42 32, 44 30, 46 30
    C 48 30, 48 32, 46 36
    C 44 42, 40 50, 38 58
    C 36 64, 36 70, 38 74
    C 40 78, 42 80, 44 80
    C 46 80, 47 78, 46 76
    C 44 72, 44 66, 46 60
    C 48 54, 50 48, 52 44
    C 54 40, 55 38, 55 38
  " fill="#2c3e50" opacity="0.85"/>
  
  <!-- Face profile features -->
  <path d="
    M 58 36
    C 60 36, 62 38, 62 40
    C 62 42, 60 42, 58 42
  " fill="#2c3e50" stroke="none"/>
</svg>
