<svg xmlns="http://www.w3.org/2000/svg" viewBox="0 0 100 100">
  <rect width="100" height="100" fill="#f39c12" rx="50"/>

  <g fill="#2c3e50">
    <circle cx="50" cy="38" r="24"/>
    <path d="M 72 32 C 80 34, 84 44, 82 54 C 80 62, 76 68, 70 66 C 66 64, 68 56, 70 48 C 72 40, 72 36, 72 32 Z"/>
    <rect x="46" y="60" width="8" height="10" rx="3"/>
    <path d="M 34 70 C 38 74, 42 76, 50 76 C 58 76, 62 74, 66 70 L 68 80 C 62 84, 56 86, 50 86 C 44 86, 38 84, 32 80 Z"/>
  </g>

  <g fill="#fff">
    <ellipse cx="40" cy="34" rx="5.5" ry="7"/>
    <ellipse cx="58" cy="34" rx="5.5" ry="7"/>
    <circle cx="39" cy="32" r="1.8"/>
    <circle cx="57" cy="32" r="1.8"/>
    <circle cx="48" cy="44" r="1.2"/>
    <circle cx="34" cy="44" r="4"/>
    <circle cx="66" cy="44" r="4"/>
  </g>

  <g fill="#2c3e50">
    <circle cx="41" cy="34" r="3.2"/>
    <circle cx="59" cy="34" r="3.2"/>
  </g>

  <path d="M 44 50 C 47 53, 53 53, 56 50" fill="none" stroke="#fff" stroke-width="2.2" stroke-linecap="round"/>
</svg>
